<?xml version="1.0" encoding="UTF-8"?>
<svg xmlns="http://www.w3.org/2000/svg" id="Layer_1" data-name="Layer 1" viewBox="0 0 792 612">
      <style>
        .cls-1 {
          fill:#0c0c0c;
        }
        .cls-1:hover {
          fill:#5daf41;
        }
      </style>
   <title>Hipotecario</title>
   <path class="cls-1" d="M626.27,305.49q-100.46-101-201.08-201.76c-18.64-18.58-40.33-18-59.58.39-12.16,11.65-23.79,23.85-35.71,35.75-9.38,9.36-18.85,18.64-28.28,28l-3.49-1.35c0-13.82.43-27.66-.29-41.43-.19-3.6-3.86-10-6.11-10.06-20.84-.78-41.72-.46-63.49-.46,0,37.25.72,72.33-.48,107.35a48.18,48.18,0,0,1-10.39,27.34c-16.47,19.71-34.9,37.77-52.46,56.57-8.51,9.12-13.21,19.29-7.23,31.76,5.71,11.9,15.29,17,28.35,16.36,5.36-.25,10.76.39,17.09.67,0,6.87,0,12,0,17.05,0,41.18-.11,82.36.09,123.54.06,12.26,2.49,25.92,17,26.6l342.73.62c17.62-.1,25.45-7.61,26.08-25.57.49-14,0-28.07,0-42.11,0-33.08,0-66.16,0-100.88,6.6,0,11.64-.24,16.65,0,13.63.79,23.8-4.71,29.49-17C640.93,324.21,635,314.25,626.27,305.49ZM500.12,454.62H396.21V350.71H500.12Z" />
</svg>
