<svg id="Layer_1" data-name="Layer 1" xmlns="http://www.w3.org/2000/svg" viewBox="0 0 792 612"><defs><style>.cls-1{fill:#0c0c0c;}.cls-2{fill:#5daf41;}.cls-3{fill:#231f20;}</style></defs><title>Artboard 1</title><path class="cls-1" d="M404.15,278.83c6.43-3.75,12.32-7.27,18.32-10.59a3.77,3.77,0,0,1,3,.44q28.35,16.43,56.63,33l22.1,12.9c.73.43,1.42.91,2.38,1.53-8,4.68-15.68,9.21-23.41,13.72q-47,27.43-94,54.89a4.58,4.58,0,0,1-5.39.06Q326,350.92,268.11,317.25c-1.3-.76-2.07-1.49-2.06-3.19q.08-46.26,0-92.51c0-.67.09-1.35.17-2.44,3.23,1.86,6.22,3.57,9.19,5.31Q329.57,256,383.71,287.53a4.62,4.62,0,0,1,2.72,4.64c-.11,22.91-.07,45.82-.08,68.73,0,.69,0,1.38,0,2.71L467.91,316Z"/><path class="cls-1" d="M506.68,195.62l-20.15,11.76q-48.82,28.47-97.62,57a4.17,4.17,0,0,1-4.89,0q-57.78-33.82-115.64-67.52c-.65-.38-1.26-.83-2.13-1.4L292.85,180q45.54-26.58,91.06-53.2a4.22,4.22,0,0,1,4.95,0q57.79,33.82,115.65,67.5C505.11,194.59,505.68,195,506.68,195.62ZM386.21,226.27a79.48,79.48,0,0,0,24.2-3.34c9.19-2.83,17.72-6.86,23.89-14.61,6.38-8,6.54-17.9-.23-25.56a41.68,41.68,0,0,0-11.88-9.55c-20.92-10.62-42.61-10.94-64.53-3.32-8,2.79-15.13,7.16-20.08,14.32-4.83,7-5,14.25-.73,21.57,3.14,5.34,7.86,9,13.19,12C361.29,223.94,373.51,226.18,386.21,226.27Z"/><path class="cls-2" d="M386.34,212a40.43,40.43,0,0,0,12.31-1.7c4.68-1.44,9-3.49,12.15-7.43s3.33-9.11-.12-13a21.2,21.2,0,0,0-6-4.86c-10.64-5.4-21.68-5.57-32.83-1.69a19.85,19.85,0,0,0-10.21,7.28,9.51,9.51,0,0,0-.37,11,16.85,16.85,0,0,0,6.71,6.08A37.93,37.93,0,0,0,386.34,212Z"/><polygon class="cls-3" points="225.42 446.85 237.17 446.85 237.17 490.69 244.88 490.69 244.88 446.85 256.59 446.85 256.59 439.6 225.42 439.6 225.42 446.85"/><path class="cls-3" d="M289,463.92a14.52,14.52,0,0,0,3.11-9.33,14,14,0,0,0-5-11.18q-4.5-3.8-14.62-3.81h-9v51.09h7.71V469.78h1.39l14.59,20.91h9.43l-15.82-21.77A13.87,13.87,0,0,0,289,463.92Zm-17.8-.86V446.85h2.75q10.65,0,10.65,7.84,0,8.37-11,8.37Z"/><polygon class="cls-3" points="304.27 490.69 332.46 490.69 332.46 483.44 311.98 483.44 311.98 466.37 331.87 466.37 331.87 459.13 311.98 459.13 311.98 446.85 332.46 446.85 332.46 439.6 304.27 439.6 304.27 490.69"/><path class="cls-3" d="M422.69,441.13a39,39,0,0,0-12.18-1.52H399.79v51.09h10.59q7.78,0,12-1.42a24,24,0,0,0,8.67-5.06q8.24-7.28,8.24-19.06t-7.91-19A22.78,22.78,0,0,0,422.69,441.13Zm3.14,37.55a17.57,17.57,0,0,1-6.22,3.67,29,29,0,0,1-8.63,1.09H407.5v-36.6H411q9.86,0,14.92,4.67a17.74,17.74,0,0,1,5.63,13.63A17.48,17.48,0,0,1,425.83,478.68Z"/><rect class="cls-3" x="448.99" y="439.6" width="7.71" height="51.09"/><polygon class="cls-3" points="506.24 475.11 468.98 436.13 468.98 490.69 476.69 490.69 476.69 454.92 513.95 493.8 513.95 439.6 506.24 439.6 506.24 475.11"/><path class="cls-3" d="M553,464.09v7.25h12.74a13.65,13.65,0,0,1-5.06,9.26,15.41,15.41,0,0,1-10.22,3.84,19.19,19.19,0,0,1-18.53-19.19,18.67,18.67,0,0,1,5.49-13.76,18.3,18.3,0,0,1,13.6-5.59q9,0,15.32,8.37l5.49-5.26a32.27,32.27,0,0,0-9.76-7.94,26.88,26.88,0,0,0-30.11,5.33,26.68,26.68,0,0,0-.13,37.52,24.88,24.88,0,0,0,18.36,7.74,23.14,23.14,0,0,0,18.1-8,21.68,21.68,0,0,0,4.47-7.68,34.87,34.87,0,0,0,1.36-10.19v-1.69Z"/><path class="cls-2" d="M383.74,392.72l-3.9-2.28v84.66l-37.26-39v54.56h7.71V454.92l37.26,38.88V393.36A4.44,4.44,0,0,1,383.74,392.72Z"/></svg>